<?xml version="1.0" encoding="UTF-8"?>
<svg xmlns="http://www.w3.org/2000/svg" version="1.1" viewBox="0 0 1366 768">
  <defs>
    <style>
      .cls-1 {
        fill: #f5f6f6;
      }

      .cls-2 {
        fill: none;
        stroke: #231f20;
        stroke-miterlimit: 10;
      }
    </style>
  </defs>
  <!-- Generator: Adobe Illustrator 28.7.4, SVG Export Plug-In . SVG Version: 1.2.0 Build 166)  -->
  <g>
    <g id="Layer_1">
      <path class="cls-1" d="M1366,0v473.9c-10.1,28.7-30.6,73.2-73.3,110.8-108.5,95.6-258.4,57.4-273.7,53.2-21.5,21.7-61.8,56.8-121.4,78.4-138.5,50.2-267-14-304.8-32.9-33.6-16.8-88.6-49.6-141.8-110.6-38.7,10.3-135.9,30.8-250.7-5.7C92.2,532.7,26.6,466.2,0,435.9V0h1366Z"/>
      <path class="cls-2" d="M0,435.9c10.1,17.2,105.7,173.9,285.1,188,90.8,7.1,161.6-25.6,194.5-43.8,30.6,27.8,151.2,130.5,334,133.1,143.2,2,246.3-58.6,285.4-84.5,19.4,2.5,109.8,12.3,188.9-49.1,47.7-37,69.3-82.8,78.3-105.9"/>
    </g>
  </g>
</svg>