<svg width="165" height="154" viewBox="0 0 165 154" fill="none" xmlns="http://www.w3.org/2000/svg">
<rect width="165" height="154" fill="#DBEAFE"/>
<path d="M111.222 109.173H52.0316C47.0564 109.173 43.0088 105.121 43.0088 100.141V40.8939C43.0088 35.9138 47.0564 31.8623 52.0316 31.8623H111.222C116.197 31.8623 120.244 35.9138 120.244 40.8939V100.141C120.244 105.121 116.197 109.173 111.222 109.173ZM52.0316 33.3074C47.8458 33.3074 44.4524 36.7039 44.4524 40.8939V100.141C44.4524 104.331 47.8458 107.727 52.0316 107.727H93.4927C107.47 107.727 118.801 96.3857 118.801 82.395V40.8939C118.801 36.704 115.407 33.3074 111.222 33.3074L52.0316 33.3074Z" fill="#3C90FF"/>
<path d="M58.4129 39.4684C55.6115 39.4684 53.3325 41.7495 53.3325 44.5537V52.5132C53.3325 55.3173 55.6115 57.5985 58.4129 57.5985H66.3648C69.1662 57.5985 71.4452 55.3173 71.4452 52.5132V44.5537C71.4452 41.7495 69.1662 39.4684 66.3648 39.4684H58.4129Z" fill="#6C63FF"/>
<path d="M58.4129 61.8756C55.6115 61.8756 53.3325 64.1568 53.3325 66.9609V74.9205C53.3325 77.7246 55.6115 80.0057 58.4129 80.0057H66.3648C69.1662 80.0057 71.4452 77.7246 71.4452 74.9205V66.9609C71.4452 64.1568 69.1662 61.8756 66.3648 61.8756H58.4129Z" fill="#6C63FF"/>
<path d="M58.4129 84.2828C55.6115 84.2828 53.3325 86.564 53.3325 89.3681V97.3277C53.3325 100.132 55.6115 102.413 58.4129 102.413H66.3648C69.1662 102.413 71.4452 100.132 71.4452 97.3277V89.3681C71.4452 86.564 69.1662 84.2828 66.3648 84.2828H58.4129Z" fill="#6C63FF"/>
<path d="M63.6861 20.0488C60.1562 20.0488 57.2847 22.9232 57.2847 26.4564V36.4857C57.2847 40.019 60.1562 42.8933 63.6861 42.8933H73.7057C77.2356 42.8933 80.1071 40.019 80.1071 36.4857V26.4564C80.1071 22.9232 77.2356 20.0488 73.7057 20.0488H63.6861Z" fill="#6C63FF"/>
<path d="M96.6734 48.0765C93.1435 48.0765 90.272 50.9509 90.272 54.4841V64.5134C90.272 68.0467 93.1435 70.921 96.6734 70.921H106.693C110.223 70.921 113.094 68.0467 113.094 64.5134V54.4841C113.094 50.9509 110.223 48.0765 106.693 48.0765H96.6734Z" fill="#6C63FF"/>
<path d="M82.3321 149.025L80.2966 149.008L79.3955 140.966L82.3997 140.991L82.3321 149.025Z" fill="#A0616A"/>
<path d="M75.812 152.265C75.8076 152.767 76.2115 153.18 76.7143 153.184L80.7614 153.218L81.4699 151.78L81.7301 153.225L83.2571 153.239L82.8715 148.086L82.3402 148.051L80.1732 147.901L79.4741 147.854L79.4618 149.312L76.2108 151.519C75.9635 151.688 75.8145 151.966 75.812 152.265Z" fill="#2F2E41"/>
<path d="M92.6885 149.025L90.653 149.008L89.752 140.966L92.7561 140.991L92.6885 149.025Z" fill="#A0616A"/>
<path d="M86.1685 152.265C86.1641 152.767 86.5679 153.18 87.0708 153.184L91.1178 153.218L91.8263 151.78L92.0865 153.225L93.6136 153.239L93.228 148.086L92.6967 148.051L90.5297 147.901L89.8305 147.854L89.8183 149.312L86.5673 151.519C86.3199 151.688 86.171 151.966 86.1685 152.265Z" fill="#2F2E41"/>
<path d="M74.3445 84.0056L82.5953 84.2664L90.412 86.0051C90.412 86.0051 89.6303 86.9614 92.2358 89.5695C92.2358 89.5695 95.7099 95.6549 93.2781 101.567L92.2358 125.213C92.2358 125.213 95.2746 141.882 92.9528 147.187L89.8843 147.379L84.6919 125.405L82.1611 101.74L80.9452 125.039C80.9452 125.039 85.5968 141.031 82.6595 147.379L79.3361 147.187L73.6497 125.039C73.6497 125.039 71.2178 99.4801 71.5652 94.6117C71.9126 89.7433 74.3445 84.0056 74.3445 84.0056Z" fill="#2F2E41"/>
<path d="M102.053 46.6407C100.925 46.933 100.247 48.0853 100.54 49.2143C100.673 49.7316 100.989 50.1525 101.398 50.4305L101.398 50.4334L101.238 54.3127L104.204 55.6866L104.441 49.7169L104.42 49.7175C104.677 49.2589 104.766 48.7049 104.624 48.1556C104.332 47.0266 103.181 46.3483 102.053 46.6407Z" fill="#A0616A"/>
<path d="M85.4769 60.486C84.8539 59.8679 84.4924 59.0298 84.4789 58.1184C84.4607 56.8958 85.0728 55.7861 86.1162 55.1501C87.3178 54.4176 88.8203 54.4917 89.9442 55.3386L99.2574 62.3576L100.917 52.2462L104.48 53.3942L103.63 66.5607C103.57 67.4817 103.05 68.293 102.239 68.731C101.427 69.169 100.464 69.158 99.6627 68.7017L86.2036 61.0369C85.9332 60.8829 85.6897 60.6972 85.4769 60.486Z" fill="#3F3D56"/>
<path d="M71.2755 40.9849C71.8709 41.9874 71.5416 43.2831 70.5401 43.8791C70.0812 44.1522 69.5612 44.2288 69.0747 44.1375L69.0728 44.1397L66.4578 47.0073L63.3853 45.8928L67.4161 41.4866L67.4303 41.5016C67.5702 40.9947 67.8968 40.5387 68.3841 40.2487C69.3856 39.6528 70.6801 39.9824 71.2755 40.9849Z" fill="#A0616A"/>
<path d="M72.4053 62.3779L57.4561 58.3359C56.566 58.0952 55.8745 57.4244 55.6063 56.5415C55.338 55.6585 55.5394 54.7159 56.1449 54.0199L64.8022 44.0707L68.1398 45.7663L62.2062 54.1163L73.757 55.6952C75.1508 55.8858 76.2699 56.892 76.608 58.259C76.9016 59.4459 76.5557 60.6654 75.6829 61.5208C75.0322 62.1585 74.186 62.4989 73.3088 62.4988C73.0091 62.4988 72.7056 62.4591 72.4053 62.3779Z" fill="#3F3D56"/>
<path d="M93.7179 87.4845L72.8133 88.4443C72.2391 87.5716 72.3946 86.2593 73.1987 84.6161C76.2345 78.4116 73.9289 66.674 72.3779 60.5621C71.9427 58.8473 73.1109 57.1425 74.8697 56.9665L76.8408 56.7692L78.6627 51.202H85.0438L87.691 54.2293L92.1836 56.9611C91.3659 65.3924 87.8815 77.2981 92.8454 83.2687C93.9311 84.5746 94.2389 85.9867 93.7179 87.4845Z" fill="#3F3D56"/>
<path d="M81.0415 51.3306C84.4741 51.3306 87.2568 48.5452 87.2568 45.1093C87.2568 41.6733 84.4741 38.8879 81.0415 38.8879C77.6089 38.8879 74.8262 41.6733 74.8262 45.1093C74.8262 48.5452 77.6089 51.3306 81.0415 51.3306Z" fill="#A0616A"/>
<path d="M88.0747 41.1271C88.9394 37.9713 79.5147 35.2651 77.6832 37.8065C77.4285 37.4452 76.4873 37.2257 76.0555 37.3365C75.6236 37.4474 75.2605 37.7245 74.9061 37.9927C74.4189 38.3673 73.914 38.7552 73.6151 39.2939C73.3139 39.8303 73.2674 40.5618 73.6726 41.0273C73.9937 41.3975 74.558 43.3646 75.0408 43.4622C75.3774 43.5309 75.6608 43.5863 75.9044 43.6262C76.1214 43.3092 76.6749 42.911 76.635 42.5275C76.9628 42.7448 76.843 43.127 76.7769 43.5176C76.5569 44.8183 71.5995 54.8871 74.4389 51.92C74.7201 52.0863 75.0678 52.2414 75.4686 52.3833C76.1485 51.357 76.7065 50.1467 77.0742 48.881L77.0768 48.9043C77.2033 50.0043 78.0064 50.9068 79.0689 51.2149C83.3309 52.4509 86.7784 50.6373 87.9644 47.3669C87.5302 46.4846 87.3411 46.5805 87.38 46.5542C87.9219 46.1886 88.6668 46.4277 88.8997 47.039C88.9684 47.2192 89.0308 47.373 89.0849 47.4888C89.7028 45.2766 90.4376 45.5959 88.0747 41.1271Z" fill="#2F2E41"/>
<path d="M85.1347 38.8374L84.6994 36.6095C84.6628 36.4222 84.628 36.219 84.7124 36.0479C84.8208 35.828 85.0994 35.7369 85.3419 35.7719C85.5843 35.807 85.7656 36.0286 86.0068 36.0713C86.8455 36.2197 87.954 35.3906 88.2545 37.4882C88.3798 38.3628 89.774 38.4551 90.2396 39.2057C90.7052 39.9563 90.7624 41.0397 90.1269 41.6529C89.6194 42.1427 88.8044 42.1992 88.1453 41.949C87.4861 41.6988 86.9571 41.1935 86.495 40.6606C86.0329 40.1278 85.6145 39.5511 85.0815 39.0893" fill="#2F2E41"/>
<path d="M88.4066 42.226C86.7059 41.9881 85.5467 41.369 84.9611 40.3859C84.1947 39.099 84.7081 37.682 84.7303 37.6223L85.0898 37.7561C85.085 37.7691 84.6193 39.0662 85.2926 40.1926C85.8164 41.0689 86.882 41.6251 88.4596 41.8458L88.4066 42.226Z" fill="#6C63FF"/>
<path d="M96.3878 18.1535C91.388 18.1535 87.3198 14.0814 87.3198 9.07677C87.3198 4.07213 91.388 0 96.3878 0C101.388 0 105.456 4.07213 105.456 9.07677C105.456 14.0814 101.388 18.1535 96.3878 18.1535ZM96.3878 3.63071C93.3876 3.63071 90.947 6.07363 90.947 9.07677C90.947 12.0799 93.3876 14.5228 96.3878 14.5228C99.3881 14.5228 101.829 12.0799 101.829 9.07677C101.829 6.07363 99.3881 3.63071 96.3878 3.63071Z" fill="#6C63FF"/>
<path d="M110.339 24.322C109.895 24.322 109.449 24.1598 109.1 23.8309L100.589 15.8471C99.8571 15.1619 99.8199 14.0131 100.505 13.2819C101.189 12.5479 102.337 12.5116 103.068 13.1985L111.579 21.1824C112.311 21.8676 112.348 23.0163 111.662 23.7476C111.305 24.1297 110.823 24.322 110.339 24.322Z" fill="#6C63FF"/>
</svg>
