<svg width="268" height="172" viewBox="0 0 268 172" fill="none" xmlns="http://www.w3.org/2000/svg">
<rect width="268" height="172" fill="#DCFCE7"/>
<path d="M202.849 115.363C203.326 115.125 203.746 114.785 204.079 114.367C204.411 113.949 204.648 113.463 204.772 112.943C204.897 112.423 204.906 111.883 204.799 111.359C204.692 110.835 204.472 110.342 204.154 109.912L212.661 68.5546L204.723 68.4498L198.815 109.283C198.13 109.866 197.683 110.68 197.557 111.571C197.432 112.461 197.637 113.368 198.135 114.117C198.632 114.866 199.386 115.407 200.255 115.637C201.124 115.867 202.047 115.769 202.849 115.363Z" fill="#FFB8B8"/>
<path d="M241.517 113.215C241.907 112.851 242.212 112.404 242.412 111.909C242.611 111.413 242.699 110.879 242.67 110.346C242.641 109.812 242.495 109.291 242.243 108.82C241.991 108.349 241.64 107.939 241.212 107.618L237.558 65.5514L229.921 67.7231L235.916 108.543C235.426 109.298 235.23 110.206 235.364 111.096C235.498 111.985 235.954 112.795 236.644 113.371C237.335 113.946 238.212 114.249 239.11 114.22C240.008 114.192 240.865 113.834 241.517 113.215Z" fill="#FFB8B8"/>
<path d="M217.019 167.472L212.853 167.471L210.871 151.38L217.02 151.38L217.019 167.472Z" fill="#FFB8B8"/>
<path d="M209.877 166.279H217.912V171.345H204.817C204.817 170.002 205.35 168.713 206.299 167.763C207.248 166.813 208.535 166.279 209.877 166.279Z" fill="#2F2E41"/>
<path d="M235.71 167.472L231.543 167.471L229.562 151.38L235.711 151.38L235.71 167.472Z" fill="#FFB8B8"/>
<path d="M228.567 166.279H236.603V171.345H223.508C223.508 170.002 224.041 168.713 224.99 167.763C225.939 166.813 227.226 166.279 228.567 166.279Z" fill="#2F2E41"/>
<path d="M218.098 52.5031C222.708 52.5031 226.445 48.7612 226.445 44.1454C226.445 39.5296 222.708 35.7878 218.098 35.7878C213.488 35.7878 209.751 39.5296 209.751 44.1454C209.751 48.7612 213.488 52.5031 218.098 52.5031Z" fill="#FFB8B8"/>
<path d="M229.832 157.318C229.493 157.317 229.164 157.198 228.902 156.981C228.64 156.765 228.461 156.464 228.394 156.131L222.752 126.899C222.7 126.631 222.554 126.391 222.341 126.221C222.127 126.052 221.86 125.965 221.588 125.976C221.316 125.987 221.057 126.095 220.858 126.281C220.659 126.467 220.533 126.718 220.503 126.989L217.343 155.463C217.306 155.811 217.145 156.133 216.891 156.372C216.636 156.611 216.304 156.75 215.955 156.765L211.216 156.98C211.023 156.99 210.831 156.962 210.649 156.896C210.468 156.83 210.302 156.728 210.16 156.597C210.018 156.467 209.903 156.31 209.822 156.135C209.74 155.96 209.695 155.77 209.687 155.577L207.87 111.593C207.86 111.371 207.901 111.149 207.99 110.946C208.079 110.742 208.213 110.561 208.383 110.417L209.433 109.52C209.698 109.294 210.035 109.169 210.383 109.169H234.946C235.334 109.17 235.706 109.324 235.981 109.599C236.255 109.874 236.409 110.246 236.41 110.635V155.63C236.411 156.008 236.265 156.371 236.004 156.644C235.743 156.917 235.387 157.078 235.01 157.094L229.895 157.317C229.874 157.318 229.853 157.318 229.832 157.318Z" fill="#2F2E41"/>
<path d="M217.252 115.569C213.281 115.569 209.78 114.509 208.013 111.419C207.865 111.165 207.796 110.872 207.814 110.578L210.035 76.592C210.053 76.3172 209.971 76.0451 209.804 75.8262L203.573 67.6464C203.456 67.4931 203.371 67.3182 203.322 67.1318C203.273 66.9454 203.261 66.7511 203.287 66.56C203.313 66.369 203.376 66.185 203.473 66.0185C203.571 65.8521 203.7 65.7065 203.853 65.5901L213.199 58.5001C213.396 58.3508 213.538 58.142 213.607 57.9048L213.879 56.9508C213.963 56.6536 214.139 56.3908 214.382 56.2C214.625 56.0092 214.921 55.9003 215.23 55.8889L222.088 55.6246C222.317 55.6169 222.544 55.6625 222.752 55.7578C222.96 55.8532 223.143 55.9956 223.287 56.1738L224.017 57.0872C224.11 57.2038 224.225 57.3009 224.355 57.3731L235.825 63.7195C236.051 63.8451 236.24 64.0285 236.373 64.251C236.506 64.4736 236.577 64.7273 236.58 64.9865L236.581 65.0068L236.576 65.0262C233.902 76.1884 234.053 90.297 237.049 109.428C237.057 109.72 236.978 110.007 236.822 110.253C236.665 110.5 236.439 110.694 236.172 110.811C233.69 111.887 224.654 115.569 217.252 115.569Z" fill="#43B76E"/>
<path d="M210.268 80.5119H202.5C202.301 80.5122 202.104 80.4717 201.921 80.3929C201.738 80.314 201.573 80.1986 201.436 80.0536C201.299 79.9085 201.193 79.737 201.125 79.5496C201.057 79.3621 201.028 79.1627 201.039 78.9635C201.155 76.9819 201.383 73.2134 201.611 70.2415C201.94 65.9647 206.125 63.8598 206.167 63.8388L206.249 63.7987L209.074 65.5946L211.704 78.7593C211.746 78.9719 211.741 79.1912 211.688 79.4016C211.636 79.6119 211.537 79.8079 211.4 79.9756C211.263 80.1432 211.09 80.2783 210.894 80.371C210.699 80.4638 210.485 80.5119 210.268 80.5119Z" fill="#43B76E"/>
<path d="M231.554 79.7859C231.349 79.7846 231.147 79.7403 230.96 79.6558C230.774 79.5713 230.606 79.4485 230.47 79.2953C230.334 79.1422 230.231 78.9621 230.168 78.7667C230.106 78.5712 230.085 78.3648 230.107 78.1608L231.54 64.9544L234.31 62.9232L234.373 62.9302C234.403 62.9337 237.353 63.3026 238.675 66.6113C239.616 68.9675 241.054 73.3221 241.827 75.7082C241.889 75.9 241.911 76.1025 241.891 76.3031C241.871 76.5037 241.81 76.6981 241.712 76.874C241.614 77.0499 241.48 77.2036 241.32 77.3254C241.16 77.4473 240.976 77.5346 240.78 77.582L231.907 79.743C231.792 79.7714 231.673 79.7858 231.554 79.7859Z" fill="#43B76E"/>
<path d="M218.288 52.5614C220.073 49.7333 217.845 41.9484 212.988 41.7452C211.867 41.6983 211.436 40.0647 211.055 39.0079C210.861 38.3951 210.81 37.7461 210.905 37.1104C210.999 36.4746 211.238 35.869 211.603 35.3399C212.344 34.2854 213.366 33.4594 214.551 32.9551C215.885 32.3416 217.334 32.0226 218.802 32.0197C220.269 32.0167 221.72 32.3299 223.056 32.938C224.392 33.546 225.582 34.4348 226.545 35.5438C227.507 36.6529 228.22 37.9563 228.636 39.3657C229.051 40.7751 229.159 42.2574 228.951 43.7121C228.744 45.1668 228.226 46.5598 227.434 47.7966C226.641 49.0333 225.592 50.0849 224.358 50.88C223.124 51.6751 221.734 52.195 220.281 52.4045L218.288 52.5614Z" fill="#2F2E41"/>
<path d="M167.881 0H2.37888C1.74818 0.000700724 1.1435 0.251885 0.697529 0.698439C0.251554 1.14499 0.000699816 1.75045 0 2.38197V114.675C0.000700714 115.306 0.251554 115.912 0.697529 116.358C1.1435 116.805 1.74818 117.056 2.37888 117.057H167.881C168.512 117.056 169.116 116.805 169.562 116.358C170.008 115.912 170.259 115.306 170.26 114.675V2.38197C170.259 1.75045 170.008 1.14499 169.562 0.698439C169.116 0.251885 168.512 0.000700724 167.881 0ZM169.58 114.675C169.58 115.126 169.401 115.559 169.082 115.878C168.764 116.197 168.332 116.376 167.881 116.376H2.37888C1.92828 116.376 1.49618 116.197 1.17756 115.878C0.858937 115.559 0.67986 115.126 0.67968 114.675V2.38197C0.67986 1.93078 0.858937 1.49813 1.17756 1.17909C1.49618 0.860057 1.92828 0.680742 2.37888 0.680562H167.881C168.332 0.680742 168.764 0.860057 169.082 1.17909C169.401 1.49813 169.58 1.93078 169.58 2.38197V114.675Z" fill="#3F3D56"/>
<path d="M169.92 9.5415H0.339844V10.2221H169.92V9.5415Z" fill="#3F3D56"/>
<path d="M6.11717 7.14587C7.2433 7.14587 8.15621 6.23178 8.15621 5.10419C8.15621 3.97659 7.2433 3.0625 6.11717 3.0625C4.99103 3.0625 4.07812 3.97659 4.07812 5.10419C4.07812 6.23178 4.99103 7.14587 6.11717 7.14587Z" fill="#3F3D56"/>
<path d="M11.9795 7.14587C13.1056 7.14587 14.0185 6.23178 14.0185 5.10419C14.0185 3.97659 13.1056 3.0625 11.9795 3.0625C10.8533 3.0625 9.94043 3.97659 9.94043 5.10419C9.94043 6.23178 10.8533 7.14587 11.9795 7.14587Z" fill="#3F3D56"/>
<path d="M17.8418 7.14587C18.9679 7.14587 19.8808 6.23178 19.8808 5.10419C19.8808 3.97659 18.9679 3.0625 17.8418 3.0625C16.7156 3.0625 15.8027 3.97659 15.8027 5.10419C15.8027 6.23178 16.7156 7.14587 17.8418 7.14587Z" fill="#3F3D56"/>
<path d="M137.237 32.8251H31.8862C30.4891 32.8251 29.1493 32.2694 28.1615 31.2803C27.1736 30.2911 26.6187 28.9496 26.6187 27.5507C26.6187 26.1519 27.1736 24.8103 28.1615 23.8212C29.1493 22.8321 30.4891 22.2764 31.8862 22.2764H137.237C138.634 22.2764 139.973 22.8321 140.961 23.8212C141.949 24.8103 142.504 26.1519 142.504 27.5507C142.504 28.9496 141.949 30.2911 140.961 31.2803C139.973 32.2694 138.634 32.8251 137.237 32.8251ZM31.8862 22.9569C30.6694 22.9569 29.5025 23.4409 28.6421 24.3024C27.7817 25.1639 27.2983 26.3324 27.2983 27.5507C27.2983 28.7691 27.7817 29.9375 28.6421 30.799C29.5025 31.6605 30.6694 32.1445 31.8862 32.1445H137.237C138.453 32.1445 139.62 31.6605 140.481 30.799C141.341 29.9375 141.824 28.7691 141.824 27.5507C141.824 26.3324 141.341 25.1639 140.481 24.3024C139.62 23.4409 138.453 22.9569 137.237 22.9569H31.8862Z" fill="#3F3D56"/>
<path d="M59.0735 59.7073H38.683C37.286 59.7073 35.9462 59.1516 34.9584 58.1625C33.9705 57.1733 33.4155 55.8318 33.4155 54.4329C33.4155 53.0341 33.9705 51.6925 34.9584 50.7034C35.9462 49.7143 37.286 49.1586 38.683 49.1586H59.0735C60.4705 49.1586 61.8103 49.7143 62.7981 50.7034C63.786 51.6925 64.341 53.0341 64.341 54.4329C64.341 55.8318 63.786 57.1733 62.7981 58.1625C61.8103 59.1516 60.4705 59.7073 59.0735 59.7073ZM38.683 49.8391C37.4663 49.8391 36.2993 50.3231 35.439 51.1846C34.5786 52.0461 34.0952 53.2146 34.0952 54.4329C34.0952 55.6513 34.5786 56.8197 35.439 57.6812C36.2993 58.5427 37.4663 59.0267 38.683 59.0267H59.0735C60.2902 59.0267 61.4572 58.5427 62.3175 57.6812C63.1779 56.8197 63.6613 55.6513 63.6613 54.4329C63.6613 53.2146 63.1779 52.0461 62.3175 51.1846C61.4572 50.3231 60.2902 49.8391 59.0735 49.8391H38.683Z" fill="#3F3D56"/>
<path d="M59.0735 77.4019H38.683C37.286 77.4019 35.9462 76.8462 34.9584 75.857C33.9705 74.8679 33.4155 73.5264 33.4155 72.1275C33.4155 70.7287 33.9705 69.3871 34.9584 68.398C35.9462 67.4088 37.286 66.8531 38.683 66.8531H59.0735C60.4705 66.8531 61.8103 67.4088 62.7981 68.398C63.786 69.3871 64.341 70.7287 64.341 72.1275C64.341 73.5264 63.786 74.8679 62.7981 75.857C61.8103 76.8462 60.4705 77.4019 59.0735 77.4019ZM38.683 67.5337C37.4663 67.5337 36.2993 68.0177 35.439 68.8792C34.5786 69.7407 34.0952 70.9092 34.0952 72.1275C34.0952 73.3459 34.5786 74.5143 35.439 75.3758C36.2993 76.2373 37.4663 76.7213 38.683 76.7213H59.0735C60.2902 76.7213 61.4572 76.2373 62.3175 75.3758C63.1779 74.5143 63.6613 73.3459 63.6613 72.1275C63.6613 70.9092 63.1779 69.7407 62.3175 68.8792C61.4572 68.0177 60.2902 67.5337 59.0735 67.5337H38.683Z" fill="#3F3D56"/>
<path d="M59.0735 95.0965H38.683C37.286 95.0965 35.9462 94.5408 34.9584 93.5517C33.9705 92.5626 33.4155 91.221 33.4155 89.8221C33.4155 88.4233 33.9705 87.0818 34.9584 86.0926C35.9462 85.1035 37.286 84.5478 38.683 84.5478H59.0735C60.4705 84.5478 61.8103 85.1035 62.7981 86.0926C63.786 87.0818 64.341 88.4233 64.341 89.8221C64.341 91.221 63.786 92.5626 62.7981 93.5517C61.8103 94.5408 60.4705 95.0965 59.0735 95.0965ZM38.683 85.2284C37.4663 85.2284 36.2993 85.7123 35.439 86.5738C34.5786 87.4354 34.0952 88.6038 34.0952 89.8221C34.0952 91.0405 34.5786 92.209 35.439 93.0705C36.2993 93.932 37.4663 94.4159 38.683 94.4159H59.0735C60.2902 94.4159 61.4572 93.932 62.3175 93.0705C63.1779 92.209 63.6613 91.0405 63.6613 89.8221C63.6613 88.6038 63.1779 87.4354 62.3175 86.5738C61.4572 85.7123 60.2902 85.2284 59.0735 85.2284H38.683Z" fill="#3F3D56"/>
<path d="M62.132 29.9326H33.5854C32.9545 29.9326 32.3494 29.6817 31.9033 29.235C31.4572 28.7883 31.2065 28.1824 31.2065 27.5507C31.2065 26.9189 31.4572 26.3131 31.9033 25.8664C32.3494 25.4197 32.9545 25.1687 33.5854 25.1687H62.132C62.7629 25.1687 63.368 25.4197 63.8141 25.8664C64.2602 26.3131 64.5109 26.9189 64.5109 27.5507C64.5109 28.1824 64.2602 28.7883 63.8141 29.235C63.368 29.6817 62.7629 29.9326 62.132 29.9326Z" fill="#43B76E"/>
<path d="M133.668 28.7417C133.198 28.7417 132.738 28.602 132.347 28.3403C131.956 28.0786 131.651 27.7065 131.471 27.2713C131.291 26.836 131.243 26.3571 131.335 25.895C131.427 25.433 131.654 25.0086 131.986 24.6754C132.319 24.3423 132.743 24.1155 133.204 24.0236C133.666 23.9316 134.144 23.9788 134.579 24.1591C135.013 24.3394 135.385 24.6447 135.646 25.0364C135.908 25.4281 136.047 25.8886 136.047 26.3597C136.047 26.9913 135.796 27.5967 135.35 28.0433C134.904 28.4898 134.299 28.741 133.668 28.7417ZM133.668 24.6583C133.332 24.6583 133.004 24.7581 132.724 24.9451C132.445 25.132 132.227 25.3978 132.099 25.7086C131.97 26.0195 131.936 26.3616 132.002 26.6917C132.067 27.0217 132.229 27.3249 132.467 27.5628C132.705 27.8008 133.007 27.9628 133.337 28.0285C133.667 28.0941 134.008 28.0604 134.319 27.9316C134.629 27.8029 134.895 27.5848 135.081 27.305C135.268 27.0252 135.368 26.6963 135.368 26.3597C135.367 25.9087 135.188 25.4762 134.869 25.1572C134.551 24.8383 134.119 24.6589 133.668 24.6583Z" fill="#3F3D56"/>
<path d="M137.348 30.8965C137.304 30.8966 137.259 30.8878 137.218 30.8707C137.177 30.8536 137.139 30.8285 137.108 30.7968L134.72 28.4059C134.689 28.3743 134.664 28.3368 134.646 28.2955C134.629 28.2542 134.621 28.21 134.621 28.1653C134.621 28.1206 134.629 28.0764 134.646 28.0351C134.664 27.9938 134.689 27.9563 134.72 27.9247C134.752 27.8931 134.789 27.8681 134.83 27.851C134.872 27.8339 134.916 27.8251 134.96 27.8251C135.005 27.8251 135.049 27.8339 135.09 27.851C135.132 27.8681 135.169 27.8931 135.201 27.9247L137.588 30.3157C137.636 30.3633 137.668 30.4239 137.681 30.4899C137.695 30.5559 137.688 30.6243 137.662 30.6865C137.636 30.7486 137.593 30.8018 137.537 30.8392C137.481 30.8765 137.415 30.8965 137.348 30.8965Z" fill="#3F3D56"/>
<path d="M132.309 57.6656H120.754C119.898 57.6656 119.077 57.325 118.471 56.7188C117.866 56.1125 117.526 55.2903 117.526 54.4329C117.526 53.5756 117.866 52.7533 118.471 52.1471C119.077 51.5408 119.898 51.2003 120.754 51.2003H132.309C133.165 51.2003 133.986 51.5408 134.592 52.1471C135.197 52.7533 135.537 53.5756 135.537 54.4329C135.537 55.2903 135.197 56.1125 134.592 56.7188C133.986 57.325 133.165 57.6656 132.309 57.6656Z" fill="#43B76E"/>
<path d="M132.309 75.3602H120.754C119.898 75.3602 119.077 75.0196 118.471 74.4134C117.866 73.8071 117.526 72.9849 117.526 72.1275C117.526 71.2701 117.866 70.4479 118.471 69.8417C119.077 69.2354 119.898 68.8948 120.754 68.8948H132.309C133.165 68.8948 133.986 69.2354 134.592 69.8417C135.197 70.4479 135.537 71.2701 135.537 72.1275C135.537 72.9849 135.197 73.8071 134.592 74.4134C133.986 75.0196 133.165 75.3602 132.309 75.3602Z" fill="#43B76E"/>
<path d="M132.309 93.0548H120.754C119.898 93.0548 119.077 92.7142 118.471 92.108C117.866 91.5018 117.526 90.6795 117.526 89.8221C117.526 88.9648 117.866 88.1426 118.471 87.5363C119.077 86.9301 119.898 86.5895 120.754 86.5895H132.309C133.165 86.5895 133.986 86.9301 134.592 87.5363C135.197 88.1426 135.537 88.9648 135.537 89.8221C135.537 90.6795 135.197 91.5018 134.592 92.108C133.986 92.7142 133.165 93.0548 132.309 93.0548Z" fill="#43B76E"/>
</svg>
