<svg width="198" height="163" viewBox="0 0 198 163" fill="none" xmlns="http://www.w3.org/2000/svg">
<g clip-path="url(#clip0_98_468)">
<rect width="198" height="163" fill="#FFEDD5"/>
<path d="M195.343 163H108.326C107.621 162.999 106.946 162.715 106.448 162.209C105.95 161.703 105.67 161.016 105.669 160.301V97.8119C105.67 97.0963 105.95 96.4102 106.448 95.9042C106.946 95.3982 107.621 95.1136 108.326 95.1128H195.343C196.048 95.1136 196.723 95.3982 197.221 95.9042C197.719 96.4102 197.999 97.0963 198 97.8119V160.301C197.999 161.017 197.719 161.703 197.221 162.209C196.723 162.715 196.048 162.999 195.343 163Z" fill="#FFB287"/>
<path d="M191.721 98.7927H111.95C111.245 98.7936 110.569 99.0784 110.071 99.5846C109.573 100.091 109.292 100.777 109.292 101.493V156.62C109.292 157.336 109.573 158.022 110.071 158.528C110.569 159.034 111.245 159.319 111.95 159.32H191.721C192.425 159.319 193.1 159.034 193.598 158.528C194.096 158.022 194.376 157.335 194.377 156.62V101.493C194.376 100.777 194.096 100.091 193.598 99.5848C193.1 99.0785 192.425 98.7937 191.721 98.7927Z" fill="#FFEDD5"/>
<path d="M159.104 124.999C160.428 119.142 156.827 113.303 151.061 111.958C145.294 110.613 139.547 114.271 138.223 120.129C136.899 125.987 140.501 131.826 146.267 133.171C152.033 134.516 157.781 130.857 159.104 124.999Z" fill="#FFB9B9"/>
<path d="M179.472 149.073C179.078 147.182 178.187 145.435 176.892 144.018C175.598 142.601 173.95 141.567 172.123 141.027L172.115 141.022C171.767 140.848 171.398 140.719 171.017 140.64L158.143 137.964L155.564 135.152L144.589 135.864L143.444 139.098L130.837 144.79L131.046 144.641C130.506 144.861 129.98 145.117 129.473 145.407L129.409 145.435C129.046 145.601 128.708 145.82 128.407 146.085C125.201 148.345 123.083 151.973 123.005 156.019L122.672 159.32H181.613L179.472 149.073Z" fill="#F7B184"/>
<path d="M160.387 116.732C159.51 113.949 156.944 111.599 154.069 111.674C154.293 110.98 153.91 110.201 153.338 109.759C152.765 109.318 152.041 109.141 151.337 108.992C149.882 108.684 148.365 108.449 146.919 108.796C145.472 109.143 144.101 110.197 143.775 111.671C142.458 110.416 140.021 110.763 139.094 112.338C138.617 113.148 138.55 114.236 139.065 115.022C139.577 115.802 140.548 116.154 141.47 116.198C142.393 116.242 143.306 116.032 144.224 115.934C146.418 115.7 148.735 116.149 150.508 117.482C152.282 118.814 153.415 121.099 153.1 123.316C153.809 122.856 154.83 123.176 155.325 123.867C155.82 124.558 155.859 125.502 155.629 126.324C155.399 127.146 154.932 127.876 154.472 128.591C153.624 129.908 152.777 131.226 151.929 132.543L152.276 132.777C153.555 133.325 154.938 132.301 155.869 131.256C157.439 129.492 158.703 127.47 159.609 125.278C160.721 122.583 161.264 119.514 160.387 116.732Z" fill="#2F2E41"/>
<path d="M114.177 114.611H3.38286C2.48598 114.61 1.62613 114.248 0.991937 113.603C0.357747 112.959 0.00101519 112.086 0 111.174V31.6111C0.00101197 30.6999 0.357743 29.8264 0.991934 29.1821C1.62612 28.5379 2.48598 28.1755 3.38286 28.1744H114.177C115.074 28.1755 115.934 28.5379 116.568 29.1821C117.202 29.8264 117.559 30.6999 117.56 31.6111V111.174C117.559 112.086 117.202 112.959 116.568 113.603C115.934 114.248 115.074 114.61 114.177 114.611Z" fill="#FFB287"/>
<path d="M109.564 32.8598H7.9967C7.09946 32.861 6.2393 33.2236 5.60485 33.8681C4.9704 34.5126 4.61346 35.3865 4.6123 36.298V106.487C4.61346 107.399 4.97039 108.273 5.60484 108.917C6.23929 109.562 7.09945 109.924 7.9967 109.925H109.564C110.461 109.924 111.321 109.561 111.955 108.917C112.589 108.272 112.945 107.399 112.946 106.487V36.298C112.945 35.3867 112.589 34.5129 111.955 33.8684C111.321 33.2238 110.461 32.8611 109.564 32.8598Z" fill="#FFEDD5"/>
<path d="M73.3945 65.7992L73.2071 66.1423C74.8745 61.9677 73.3583 56.8236 70.3838 53.6758C67.4094 50.528 63.2744 49.0889 59.2027 48.518C56.1801 48.0942 53.0427 48.1065 50.1686 49.2312C46.0066 50.86 42.8268 54.6306 40.1719 58.553C38.9575 60.347 37.7635 62.3924 37.8845 64.6347C37.9968 66.7157 39.2126 68.4816 40.2084 70.2471C41.2042 72.0125 42.0357 74.203 41.3211 76.1299C40.8952 77.2782 39.9951 78.1052 39.2649 79.0445C38.5346 79.9838 37.9338 81.2535 38.2866 82.4321C38.572 83.3855 39.4305 84.0126 40.3135 84.2216C41.1963 84.4306 42.1122 84.294 43.0064 84.1568L66.2149 80.5946C67.7919 80.3525 69.288 79.7266 70.5755 78.7702C71.8629 77.8138 72.9036 76.5553 73.6089 75.102C74.3141 73.6487 74.6629 72.0437 74.6256 70.4239C74.5882 68.804 74.1659 67.2174 73.3945 65.7992Z" fill="#2F2E41"/>
<path d="M56.1318 80.4302C62.3986 80.4302 67.4789 75.2693 67.4789 68.9029C67.4789 62.5365 62.3986 57.3755 56.1318 57.3755C49.8649 57.3755 44.7847 62.5365 44.7847 68.9029C44.7847 75.2693 49.8649 80.4302 56.1318 80.4302Z" fill="#FFB9B9"/>
<path d="M84.4342 94.9983C83.6998 93.3636 82.5416 91.9626 81.0835 90.9454C79.6254 89.9283 77.9224 89.3332 76.1569 89.2239L72.9945 89.0295L73.0022 89.0631L64.963 84.1503C65.1607 84.3803 51.8866 84.862 51.8866 84.862L46.9613 89.1786L44.8958 89.3056C43.1303 89.4148 41.4273 90.0099 39.9693 91.0271C38.5112 92.0443 37.353 93.4452 36.6187 95.0799L29.9111 110.007H43.2802L43.5903 108.651C43.9277 109.069 44.2548 109.493 44.5718 109.925H91.1416L84.4342 94.9983Z" fill="#F7B184"/>
<path d="M66.8945 58.2041C66.6016 56.63 65.0212 55.91 63.6671 55.5611C59.7395 54.5431 55.6539 54.3152 51.6402 54.8902C48.7142 55.3141 45.7189 56.2488 43.5959 58.5689C41.9401 60.3784 40.9382 62.9707 40.8602 65.6471C40.8149 67.207 41.0894 68.8302 41.8533 70.1439C42.6174 71.4575 43.9196 72.4104 45.2638 72.3769L45.4 72.8579C51.097 72.0516 56.389 68.4505 59.722 63.1123C59.0964 65.3814 57.8516 67.4244 56.1313 69.0051C59.9776 67.4416 63.3209 64.824 65.789 61.4438C66.4629 60.535 67.1173 59.4017 66.8945 58.2041Z" fill="#2F2E41"/>
</g>
<defs>
<clipPath id="clip0_98_468">
<rect width="198" height="163" fill="white"/>
</clipPath>
</defs>
</svg>
