<svg width="239" height="172" viewBox="0 0 239 172" fill="none" xmlns="http://www.w3.org/2000/svg">
<rect width="239" height="172" fill="#FCE7F3"/>
<path d="M187.842 15.4764C187.238 11.0669 186.481 6.33266 183.358 3.14952C182.367 2.13952 181.181 1.33981 179.871 0.798615C178.561 0.25742 177.155 -0.0140543 175.737 0.000560195C174.319 0.0151747 172.919 0.315579 171.621 0.883653C170.322 1.45173 169.153 2.27571 168.183 3.30593C165.91 5.72107 164.906 9.11232 164.814 12.4214C164.722 15.7304 165.462 19.0028 166.283 22.2106C170.628 22.297 174.941 21.4517 178.929 19.732C179.906 19.257 180.92 18.8606 181.96 18.5467C183.014 18.2797 183.765 18.9516 184.745 19.4202L185.283 18.3944C185.723 19.2105 187.087 18.9686 187.582 18.1839C188.076 17.3993 187.968 16.3944 187.842 15.4764Z" fill="#2F2E41"/>
<path d="M169.695 34.0946L170.953 27.6952L161.52 23.6287L144.657 15.5836C144.539 14.8371 144.197 14.1437 143.675 13.5952C143.153 13.0466 142.476 12.6688 141.734 12.5116C140.992 12.3544 140.219 12.4254 139.518 12.715C138.817 13.0046 138.221 13.4993 137.809 14.1336C137.396 14.7679 137.187 15.5119 137.209 16.2672C137.23 17.0226 137.481 17.7536 137.929 18.3636C138.377 18.9737 139 19.434 139.716 19.6837C140.432 19.9333 141.208 19.9606 141.94 19.7619L157.997 29.6292L169.695 34.0946Z" fill="#FFB8B8"/>
<path d="M163.363 33.0119L170.195 26.0573L170.33 26.0982C170.415 26.1238 178.903 28.7007 184.315 31.3193C184.926 31.5927 185.471 31.9956 185.91 32.5001C186.349 33.0045 186.672 33.5983 186.857 34.2399C187.127 35.1384 187.127 36.0956 186.857 36.9941C186.588 37.8925 186.061 38.6931 185.341 39.2975C184.601 39.9571 183.686 40.3905 182.705 40.546C181.725 40.7015 180.72 40.5725 179.81 40.1743L163.363 33.0119Z" fill="#F4B6D4"/>
<path d="M163.342 63.588L182.553 68.7L186.433 50.6278L168.799 45.1929L163.342 63.588Z" fill="#FFB8B8"/>
<path d="M184.703 58.6829L165.936 54.3851L162.343 45.7117C162.05 44.4736 162.121 43.1779 162.547 41.9789C162.973 40.7799 163.736 39.7281 164.746 38.9487L171.602 33.1841L175.278 28.5083L174.878 26.0304C174.806 25.5352 174.911 25.0306 175.173 24.6038C175.435 24.1771 175.839 23.855 176.315 23.6933L181.214 21.9439C181.755 21.7422 182.354 21.753 182.887 21.9741C183.421 22.1952 183.851 22.61 184.089 23.1346L184.608 24.331C184.608 24.331 186.824 25.3691 188.073 25.953C188.715 26.244 189.289 26.6669 189.756 27.1939C190.223 27.721 190.573 28.3404 190.784 29.0116C192.695 35.1634 192.18 41.8095 189.343 47.5963L184.703 58.6829Z" fill="#F4B6D4"/>
<path d="M17.8016 150.754L8.72761 148.336C7.39341 143.607 7.23872 138.625 8.27698 133.822C12.2357 141.615 22.8676 143.084 29.166 149.161C31.1158 151.071 32.609 153.394 33.5348 155.957C34.4606 158.52 34.7953 161.258 34.5142 163.967L36.6879 170.238C32.2757 170.064 27.9538 168.94 24.02 166.943C20.0862 164.946 16.6339 162.123 13.9011 158.669C12.3872 156.716 11.1263 154.582 10.1482 152.315C13.9451 151.761 17.8016 150.754 17.8016 150.754Z" fill="#F2F2F2"/>
<path d="M130.536 172H41.5985C39.215 171.997 36.9299 171.053 35.2445 169.375C33.5591 167.697 32.6111 165.421 32.6084 163.048V45.7801C32.6111 43.4066 33.5591 41.1311 35.2445 39.4528C36.9299 37.7744 39.215 36.8304 41.5985 36.8277H130.536C132.919 36.8304 135.204 37.7744 136.89 39.4527C138.575 41.1311 139.523 43.4066 139.526 45.7801V163.048C139.523 165.421 138.575 167.697 136.89 169.375C135.204 171.053 132.919 171.997 130.536 172Z" fill="#ED8CB9"/>
<path d="M96.5911 164.741H47.8503C45.68 164.739 43.5994 163.879 42.0648 162.351C40.5302 160.823 39.667 158.751 39.6646 156.59V52.2377C39.667 50.0766 40.5302 48.0047 42.0648 46.4765C43.5994 44.9484 45.6801 44.0888 47.8503 44.0864H124.284C126.454 44.0888 128.535 44.9484 130.07 46.4765C131.604 48.0047 132.468 50.0766 132.47 52.2377V129.013C132.459 138.486 128.676 147.567 121.949 154.265C115.223 160.963 106.103 164.731 96.5911 164.741Z" fill="#FCE7F3"/>
<path d="M116.659 64.1201H55.475C55.2129 64.1204 54.9534 64.0694 54.7112 63.9698C54.4689 63.8702 54.2488 63.7242 54.0633 63.5399C53.8777 63.3556 53.7305 63.1367 53.6299 62.8958C53.5293 62.6548 53.4774 62.3965 53.4771 62.1356C53.4767 61.8746 53.528 61.6162 53.628 61.375C53.728 61.1338 53.8747 60.9145 54.0597 60.7298C54.2448 60.5451 54.4646 60.3984 54.7065 60.2983C54.9485 60.1981 55.2079 60.1464 55.47 60.1461H116.659C117.188 60.1454 117.696 60.3541 118.071 60.7263C118.446 61.0985 118.657 61.6036 118.657 62.1306C118.658 62.6576 118.448 63.1633 118.074 63.5364C117.701 63.9095 117.193 64.1194 116.664 64.1201H116.659Z" fill="#F4B6D4"/>
<path d="M116.659 71.9718H55.475C54.9458 71.9718 54.4382 71.7625 54.064 71.3898C53.6897 71.0171 53.4795 70.5117 53.4795 69.9847C53.4795 69.4577 53.6897 68.9522 54.064 68.5796C54.4382 68.2069 54.9458 67.9976 55.475 67.9976H116.659C117.189 67.9976 117.696 68.2069 118.07 68.5796C118.445 68.9522 118.655 69.4577 118.655 69.9847C118.655 70.5117 118.445 71.0171 118.07 71.3898C117.696 71.7625 117.189 71.9718 116.659 71.9718Z" fill="#F4B6D4"/>
<path d="M81.9969 79.8236H55.475C54.9458 79.8236 54.4382 79.6142 54.064 79.2415C53.6897 78.8689 53.4795 78.3635 53.4795 77.8364C53.4795 77.3094 53.6897 76.804 54.064 76.4313C54.4382 76.0587 54.9458 75.8493 55.475 75.8493H81.9969C82.5262 75.8493 83.0338 76.0587 83.408 76.4313C83.7822 76.804 83.9925 77.3094 83.9925 77.8364C83.9925 78.3635 83.7822 78.8689 83.408 79.2415C83.0338 79.6142 82.5262 79.8236 81.9969 79.8236Z" fill="#F4B6D4"/>
<path d="M116.659 96.268H55.475C54.9457 96.2687 54.4379 96.06 54.0633 95.6878C53.6886 95.3157 53.4777 94.8105 53.4771 94.2835C53.4764 93.7565 53.686 93.2509 54.0597 92.8777C54.4335 92.5046 54.9408 92.2947 55.47 92.294H116.659C117.188 92.2933 117.696 92.5021 118.071 92.8742C118.446 93.2464 118.657 93.7516 118.657 94.2785C118.658 94.8055 118.448 95.3112 118.074 95.6843C117.701 96.0574 117.193 96.2674 116.664 96.268H116.659Z" fill="white"/>
<path d="M116.659 104.12H55.475C54.9458 104.12 54.4382 103.91 54.064 103.538C53.6897 103.165 53.4795 102.66 53.4795 102.133C53.4795 101.606 53.6897 101.1 54.064 100.728C54.4382 100.355 54.9458 100.146 55.475 100.146H116.659C117.189 100.146 117.696 100.355 118.07 100.728C118.445 101.1 118.655 101.606 118.655 102.133C118.655 102.66 118.445 103.165 118.07 103.538C117.696 103.91 117.189 104.12 116.659 104.12Z" fill="white"/>
<path d="M81.9969 111.972H55.475C54.9458 111.972 54.4382 111.762 54.064 111.39C53.6897 111.017 53.4795 110.511 53.4795 109.984C53.4795 109.457 53.6897 108.952 54.064 108.579C54.4382 108.207 54.9458 107.997 55.475 107.997H81.9969C82.5262 107.997 83.0338 108.207 83.408 108.579C83.7822 108.952 83.9925 109.457 83.9925 109.984C83.9925 110.511 83.7822 111.017 83.408 111.39C83.0338 111.762 82.5262 111.972 81.9969 111.972Z" fill="white"/>
<path d="M116.659 128.416H55.475C54.9457 128.417 54.4379 128.208 54.0633 127.836C53.6886 127.464 53.4777 126.959 53.4771 126.432C53.4764 125.905 53.686 125.399 54.0597 125.026C54.4335 124.653 54.9408 124.443 55.47 124.442H116.659C117.188 124.441 117.696 124.65 118.071 125.022C118.446 125.394 118.657 125.9 118.657 126.427C118.658 126.954 118.448 127.459 118.074 127.832C117.701 128.205 117.193 128.415 116.664 128.416H116.659Z" fill="white"/>
<path d="M116.659 136.268H55.475C54.9458 136.268 54.4382 136.058 54.064 135.686C53.6897 135.313 53.4795 134.808 53.4795 134.281C53.4795 133.754 53.6897 133.248 54.064 132.876C54.4382 132.503 54.9458 132.294 55.475 132.294H116.659C117.189 132.294 117.696 132.503 118.07 132.876C118.445 133.248 118.655 133.754 118.655 134.281C118.655 134.808 118.445 135.313 118.07 135.686C117.696 136.058 117.189 136.268 116.659 136.268Z" fill="white"/>
<path d="M81.997 144.12H55.4751C54.9465 144.119 54.4399 143.909 54.0665 143.536C53.6931 143.164 53.4834 142.659 53.4834 142.132C53.4834 141.606 53.6931 141.101 54.0665 140.729C54.4399 140.356 54.9465 140.146 55.4751 140.145H81.997C82.5256 140.146 83.0322 140.356 83.4056 140.729C83.779 141.101 83.9887 141.606 83.9887 142.132C83.9887 142.659 83.779 143.164 83.4056 143.536C83.0322 143.909 82.5256 144.119 81.997 144.12Z" fill="white"/>
<path d="M135.134 64.9407C149.461 64.9407 161.076 53.3752 161.076 39.1084C161.076 24.8416 149.461 13.2761 135.134 13.2761C120.807 13.2761 109.193 24.8416 109.193 39.1084C109.193 53.3752 120.807 64.9407 135.134 64.9407Z" fill="#F4B6D4"/>
<path opacity="0.16" d="M135.134 61.3621C128.571 61.3613 122.252 58.8829 117.452 54.4266C112.651 49.9704 109.725 43.8675 109.264 37.3482C109.222 37.9496 109.193 38.5546 109.193 39.1666C109.195 46.0161 111.93 52.5841 116.794 57.4265C121.659 62.2689 128.256 64.9892 135.134 64.9892C142.013 64.9892 148.609 62.2689 153.474 57.4265C158.339 52.5841 161.073 46.0161 161.076 39.1666C161.076 38.5546 161.047 37.9496 161.005 37.3482C160.543 43.8675 157.618 49.9704 152.817 54.4266C148.016 58.8829 141.697 61.3613 135.134 61.3621Z" fill="#231F20"/>
<path d="M135.134 51.7321C134.273 51.7311 133.447 51.3899 132.838 50.7834C132.229 50.1769 131.886 49.3546 131.885 48.4969V29.778C131.885 29.3529 131.969 28.9319 132.132 28.539C132.295 28.1461 132.534 27.7891 132.836 27.4883C133.137 27.1875 133.496 26.9489 133.89 26.7861C134.284 26.6233 134.707 26.5396 135.134 26.5396C135.561 26.5396 135.984 26.6233 136.378 26.7861C136.772 26.9489 137.131 27.1875 137.432 27.4883C137.734 27.7891 137.973 28.1461 138.136 28.539C138.299 28.9319 138.383 29.3529 138.383 29.778V48.4969C138.382 49.3546 138.039 50.1769 137.43 50.7834C136.821 51.3899 135.995 51.7311 135.134 51.7321Z" fill="white"/>
<path d="M122.486 39.1376C122.487 38.2798 122.83 37.4575 123.439 36.8511C124.048 36.2446 124.874 35.9034 125.735 35.9024H144.533C144.96 35.902 145.383 35.9853 145.777 36.1477C146.172 36.31 146.53 36.5483 146.832 36.8487C147.135 37.1492 147.374 37.5059 147.538 37.8987C147.701 38.2914 147.785 38.7123 147.785 39.1375C147.785 39.5626 147.701 39.9835 147.538 40.3763C147.374 40.769 147.135 41.1258 146.832 41.4262C146.53 41.7267 146.172 41.9649 145.777 42.1273C145.383 42.2896 144.96 42.373 144.533 42.3725H125.735C124.874 42.3716 124.048 42.0304 123.439 41.424C122.83 40.8175 122.487 39.9952 122.486 39.1376Z" fill="white"/>
<path d="M174.13 44.6265L168.61 41.1185L161.357 48.3717L147.667 61.0549C146.926 60.8906 146.153 60.9541 145.449 61.237C144.746 61.5198 144.145 62.0088 143.726 62.6391C143.308 63.2694 143.091 64.0114 143.106 64.7669C143.12 65.5224 143.364 66.2558 143.806 66.8701C144.248 67.4844 144.866 67.9507 145.58 68.2072C146.294 68.4638 147.069 68.4985 147.803 68.3068C148.537 68.1151 149.195 67.706 149.691 67.1337C150.186 66.5613 150.495 65.8527 150.578 65.1015L165.676 53.833L174.13 44.6265Z" fill="#FFB8B8"/>
<path d="M170.801 50.0982L166.802 41.2218L166.89 41.1116C166.945 41.0423 172.46 34.1189 176.887 30.0626C177.367 29.5958 177.943 29.2389 178.575 29.0165C179.207 28.7941 179.88 28.7118 180.548 28.7751C181.486 28.8547 182.38 29.2051 183.121 29.7835C183.862 30.3619 184.417 31.143 184.719 32.0311C185.065 32.9582 185.135 33.9648 184.921 34.9306C184.708 35.8963 184.219 36.7804 183.515 37.4771L170.801 50.0982Z" fill="#F4B6D4"/>
<path d="M174.414 20.9224C179.207 20.9224 183.093 17.0533 183.093 12.2805C183.093 7.50767 179.207 3.63855 174.414 3.63855C169.621 3.63855 165.736 7.50767 165.736 12.2805C165.736 17.0533 169.621 20.9224 174.414 20.9224Z" fill="#FFB8B8"/>
<path d="M160.931 165.81H157.343L155.636 152.03H160.931V165.81Z" fill="#FFB8B8"/>
<path d="M162.824 172H160.252L159.792 169.581L158.616 172H151.792C151.465 172 151.147 171.896 150.883 171.703C150.62 171.51 150.425 171.238 150.328 170.927C150.23 170.616 150.235 170.282 150.342 169.974C150.449 169.667 150.652 169.401 150.921 169.216L156.37 165.468V163.023L162.102 163.363L162.824 172Z" fill="#2F2E41"/>
<path d="M205.896 162.775L202.563 164.096L195.858 151.922L200.778 149.972L205.896 162.775Z" fill="#FFB8B8"/>
<path d="M209.955 167.829L207.564 168.776L206.239 166.698L206.045 169.379L199.705 171.892C199.401 172.012 199.066 172.033 198.75 171.95C198.433 171.868 198.152 171.687 197.946 171.434C197.74 171.181 197.62 170.869 197.605 170.544C197.59 170.218 197.68 169.897 197.861 169.626L201.532 164.137L200.624 161.865L206.075 160.07L209.955 167.829Z" fill="#2F2E41"/>
<path d="M162.315 159.48H154.894L156.945 124.761L155.445 101.228L155.448 101.209L161.04 67.4752C161.48 64.8151 162.669 62.3338 164.468 60.3197L164.536 60.2433L183.251 64.8459L185.132 69.1182C191.557 72.9234 193.586 94.3812 193.669 95.2952L196.39 122.045L203.043 154.829L198.358 157.341L198.279 157.186L183.487 127.894L174.145 97.0052L168.162 124.806L162.315 159.48Z" fill="#2F2E41"/>
<path d="M185.162 12.6871C184.855 10.6784 184.534 8.65282 183.813 6.7614C183.091 4.86997 181.928 3.09836 180.26 2.02689C177.619 0.330479 174.199 0.657657 171.238 1.63347C168.948 2.38813 166.712 3.53515 165.097 5.37916C163.482 7.22319 162.575 9.85441 163.176 12.2655C166.335 11.5224 169.494 10.7792 172.652 10.036L172.307 10.2793C173.344 10.7943 174.25 11.5378 174.955 12.4535C175.661 13.3691 176.147 14.4327 176.378 15.5637C176.604 16.7083 176.572 17.8887 176.283 19.0193C175.995 20.15 175.458 21.2027 174.711 22.1013C176.865 21.3403 179.019 20.5793 181.174 19.8183C182.503 19.3485 183.927 18.8073 184.715 17.6025C185.629 16.2056 185.417 14.3542 185.162 12.6871Z" fill="#2F2E41"/>
</svg>
